<?xml version="1.0" encoding="utf-8"?>
<!-- Generator: Adobe Illustrator 16.0.0, SVG Export Plug-In . SVG Version: 6.00 Build 0)  -->
<!DOCTYPE svg PUBLIC "-//W3C//DTD SVG 1.1//EN" "http://www.w3.org/Graphics/SVG/1.1/DTD/svg11.dtd">
<svg version="1.1" id="Layer_2" xmlns="http://www.w3.org/2000/svg" xmlns:xlink="http://www.w3.org/1999/xlink" x="0px" y="0px"
	 width="96px" height="96px" viewBox="0 0 96 96" enable-background="new 0 0 96 96" xml:space="preserve">
<g>
	<path d="M44.574,46.217v3.571c1.14-0.117,2.291-0.183,3.459-0.183c1.149,0,2.278,0.063,3.395,0.175v-3.573
		c-1.137,0.117-2.291,0.183-3.461,0.183C46.821,46.39,45.688,46.328,44.574,46.217z"/>
	<path d="M47.983,1.529C22.329,1.538,1.538,22.344,1.548,47.998c0,0.012,0,0.025,0,0.037c0.011,25.654,20.814,46.444,46.471,46.436
		c25.656-0.013,46.446-20.819,46.434-46.473c0-0.011,0-0.023,0-0.036C94.443,22.307,73.638,1.517,47.983,1.529z M80.351,15.339
		c0,12.989-8.354,24.119-20.182,28.749v7.804c11.836,4.614,20.182,15.755,20.182,28.765c0,0.158,0.004,0.312,0,0.466H69.022
		c0.005-0.154,0-0.308,0-0.466c0-6.784-3.498-12.765-8.854-16.409v16.875h-8.741V60.82c-1.108-0.175-2.236-0.287-3.395-0.287
		c-1.179,0-2.33,0.117-3.459,0.296v20.294h-8.826V64.344c-5.3,3.652-8.771,9.587-8.771,16.313c0,0.158-0.003,0.312,0,0.466H15.649
		c0-0.154,0-0.308,0-0.466c0-12.956,8.316-24.067,20.099-28.715v-7.864C23.954,39.441,15.649,28.32,15.649,15.339
		c0-0.156,0-0.312,0-0.466h11.328c-0.003,0.154,0,0.31,0,0.466c0,6.747,3.465,12.698,8.771,16.346V14.873h8.826v20.305
		c1.106,0.173,2.234,0.285,3.393,0.285c1.183,0,2.332-0.117,3.461-0.295V14.873h8.741v16.842c5.348-3.644,8.854-9.61,8.854-16.375
		c0-0.156,0.005-0.312,0-0.466h11.328C80.354,15.027,80.351,15.183,80.351,15.339z"/>
</g>
</svg>
