<?xml version="1.0" encoding="utf-8"?>
<!-- Generator: Adobe Illustrator 16.0.0, SVG Export Plug-In . SVG Version: 6.00 Build 0)  -->
<!DOCTYPE svg PUBLIC "-//W3C//DTD SVG 1.1//EN" "http://www.w3.org/Graphics/SVG/1.1/DTD/svg11.dtd">
<svg version="1.1" id="Layer_1" xmlns="http://www.w3.org/2000/svg" xmlns:xlink="http://www.w3.org/1999/xlink" x="0px" y="0px"
	 width="50px" height="50px" viewBox="-315.5 -245.5 50 50" enable-background="new -315.5 -245.5 50 50" xml:space="preserve">
<path d="M-295.001-215.295h4.051v-2.593h-4.051c-1.705,0-2.559-0.564-2.559-1.693c0-1.104,0.854-1.657,2.559-1.657h2.287
	l-5.385-8.446c-0.434-0.673-0.715-1.152-0.848-1.441c-0.133-0.288-0.197-0.605-0.197-0.954c0-0.624,0.189-1.125,0.566-1.504
	c0.379-0.378,0.867-0.567,1.469-0.567c0.611,0,1.107,0.187,1.486,0.559c0.377,0.372,0.818,0.973,1.322,1.801l5.818,9.113
	l5.205-8.592c0.191-0.335,0.396-0.687,0.611-1.053c0.217-0.366,0.426-0.678,0.631-0.937c0.203-0.258,0.459-0.471,0.766-0.64
	c0.307-0.168,0.668-0.252,1.09-0.252c0.6,0,1.09,0.184,1.467,0.549c0.379,0.366,0.568,0.814,0.568,1.343
	c0,0.42-0.076,0.804-0.227,1.151c-0.15,0.349-0.387,0.787-0.711,1.315l-5.188,8.555h2.289c1.691,0,2.539,0.553,2.539,1.657
	c0,1.129-0.848,1.693-2.539,1.693h-4.07v2.593h4.07c1.691,0,2.539,0.564,2.539,1.693c0,1.104-0.848,1.657-2.539,1.657h-4.07v1.44
	c0,2.438-0.811,3.655-2.432,3.655c-1.646,0-2.469-1.218-2.469-3.655v-1.44h-4.051c-1.705,0-2.559-0.553-2.559-1.657
	C-297.56-214.73-296.706-215.295-295.001-215.295z"/>
</svg>
