<?xml version="1.0" encoding="iso-8859-1"?>
<!-- Generator: Adobe Illustrator 17.1.0, SVG Export Plug-In . SVG Version: 6.00 Build 0)  -->
<!DOCTYPE svg PUBLIC "-//W3C//DTD SVG 1.1//EN" "http://www.w3.org/Graphics/SVG/1.1/DTD/svg11.dtd">
<svg version="1.1" id="Capa_1" xmlns="http://www.w3.org/2000/svg" xmlns:xlink="http://www.w3.org/1999/xlink" x="0px" y="0px"
	 viewBox="0 0 297.165 297.165" style="enable-background:new 0 0 297.165 297.165;" xml:space="preserve">
<g>
	<path d="M276,246.907v-7.879c12-3.471,21.165-14.635,21.165-27.843c0-15.973-12.911-28.968-28.884-28.968
		c-15.973,0-29.092,12.995-29.092,28.968c0,13.185,8.81,24.333,20.81,27.824v7.573h-39v-238c0-4.418-3.249-8-7.667-8h-131
		c-4.418,0-8.333,3.582-8.333,8v238H37v-7.573c12-3.491,21.101-14.64,21.101-27.824c0-15.973-12.911-28.968-28.884-28.968
		c-15.973,0-29.092,12.995-29.092,28.968C0.126,224.393,9,235.557,21,239.028v7.879C9,248.828,0,259.16,0,271.583v17
		c0,4.418,3.916,8,8.334,8h280.998c4.418,0,7.668-3.582,7.668-8v-17C297,259.16,288,248.828,276,246.907z M115,246.583h9v34h-9
		V246.583z M140,246.583h16v34h-7.667H140V246.583z M172,246.583h9v34h-9V246.583z M197,238.583c0-4.418-3.249-8-7.667-8h-82
		c-4.418,0-8.333,3.582-8.333,8v42h-7.666H90v-264h58.333H205v264h0.332H197V238.583z M16,271.583c0-4.963,4.371-9,9.334-9H74v18H16
		V271.583z M221,262.583h51.332c4.963,0,8.668,4.037,8.668,9v9h-60V262.583z M268.365,198.218c7.15,0,12.967,5.817,12.967,12.968
		c0,7.149-5.816,12.966-12.967,12.966s-12.967-5.816-12.967-12.966C255.398,204.035,261.215,198.218,268.365,198.218z
		 M29.301,198.218c7.15,0,12.967,5.817,12.967,12.968c0,7.149-5.816,12.966-12.967,12.966s-12.967-5.816-12.967-12.966
		C16.334,204.035,22.15,198.218,29.301,198.218z"/>
	<path d="M114.33,33.583c-2.101,0-4.17,0.85-5.65,2.34c-1.49,1.49-2.35,3.55-2.35,5.66c0,2.109,0.859,4.17,2.35,5.66
		c1.48,1.489,3.55,2.34,5.65,2.34c2.109,0,4.17-0.851,5.66-2.34c1.489-1.49,2.34-3.551,2.34-5.66c0-2.11-0.851-4.17-2.34-5.66
		C118.5,34.432,116.439,33.583,114.33,33.583z"/>
	<path d="M141.68,35.923c-1.49,1.49-2.35,3.55-2.35,5.66c0,2.109,0.859,4.17,2.35,5.66c1.49,1.489,3.55,2.34,5.65,2.34
		c0.337,0,0.671-0.029,1.003-0.072c1.748-0.223,3.405-1.016,4.657-2.267c1.489-1.49,2.34-3.551,2.34-5.66
		c0-2.11-0.851-4.17-2.34-5.66c-1.252-1.252-2.909-2.045-4.657-2.268c-0.332-0.043-0.666-0.072-1.003-0.072
		C145.229,33.583,143.17,34.432,141.68,35.923z"/>
	<path d="M180.33,33.583c-2.101,0-4.17,0.85-5.65,2.34c-1.49,1.49-2.35,3.55-2.35,5.66c0,2.109,0.859,4.17,2.35,5.66
		c1.48,1.489,3.55,2.34,5.65,2.34c2.109,0,4.17-0.851,5.66-2.34c1.489-1.49,2.34-3.551,2.34-5.66c0-2.11-0.851-4.17-2.34-5.66
		C184.5,34.432,182.439,33.583,180.33,33.583z"/>
	<path d="M114.33,66.583c-2.101,0-4.17,0.85-5.65,2.34c-1.49,1.49-2.35,3.55-2.35,5.66c0,2.109,0.859,4.17,2.35,5.66
		c1.49,1.489,3.55,2.34,5.65,2.34c2.1,0,4.17-0.851,5.66-2.34c1.489-1.49,2.34-3.551,2.34-5.66c0-2.11-0.851-4.17-2.34-5.66
		C118.5,67.432,116.439,66.583,114.33,66.583z"/>
	<path d="M141.68,68.923c-1.49,1.49-2.35,3.55-2.35,5.66c0,2.109,0.859,4.17,2.35,5.66c1.49,1.489,3.55,2.34,5.65,2.34
		c0.337,0,0.671-0.029,1.003-0.072c1.748-0.223,3.405-1.016,4.657-2.268c1.489-1.49,2.34-3.561,2.34-5.66
		c0-2.101-0.851-4.17-2.34-5.66c-1.252-1.252-2.909-2.045-4.657-2.267c-0.332-0.043-0.666-0.072-1.003-0.072
		C145.229,66.583,143.17,67.432,141.68,68.923z"/>
	<path d="M180.33,66.583c-2.101,0-4.16,0.85-5.65,2.34c-1.49,1.49-2.35,3.55-2.35,5.66c0,2.109,0.859,4.17,2.35,5.66
		c1.49,1.489,3.55,2.34,5.65,2.34c2.109,0,4.17-0.851,5.66-2.34c1.489-1.49,2.34-3.551,2.34-5.66c0-2.11-0.851-4.17-2.34-5.66
		C184.5,67.432,182.439,66.583,180.33,66.583z"/>
	<path d="M114.33,99.583c-2.101,0-4.17,0.85-5.65,2.34c-1.49,1.49-2.35,3.55-2.35,5.66c0,2.109,0.859,4.17,2.35,5.66
		c1.48,1.479,3.55,2.34,5.65,2.34c2.109,0,4.17-0.86,5.66-2.34c1.489-1.49,2.34-3.551,2.34-5.66c0-2.101-0.851-4.17-2.34-5.66
		C118.5,100.432,116.439,99.583,114.33,99.583z"/>
	<path d="M141.67,101.923c-1.48,1.5-2.34,3.56-2.34,5.66c0,2.109,0.859,4.17,2.34,5.66c1.49,1.479,3.56,2.34,5.66,2.34
		c0.337,0,0.671-0.029,1.003-0.072c1.748-0.226,3.405-1.024,4.657-2.268c1.489-1.49,2.34-3.551,2.34-5.66
		c0-2.11-0.851-4.17-2.34-5.66c-1.252-1.252-2.909-2.045-4.657-2.267c-0.332-0.043-0.666-0.072-1.003-0.072
		C145.229,99.583,143.16,100.432,141.67,101.923z"/>
	<path d="M180.33,99.583c-2.101,0-4.17,0.85-5.66,2.34c-1.48,1.49-2.34,3.56-2.34,5.66c0,2.109,0.859,4.17,2.34,5.66
		c1.49,1.479,3.56,2.34,5.66,2.34c2.109,0,4.17-0.86,5.66-2.34c1.489-1.49,2.34-3.551,2.34-5.66c0-2.11-0.851-4.17-2.34-5.66
		C184.5,100.432,182.439,99.583,180.33,99.583z"/>
	<path d="M114.33,132.583c-2.11,0-4.17,0.859-5.65,2.34c-1.49,1.49-2.35,3.55-2.35,5.66c0,2.109,0.859,4.17,2.35,5.66
		c1.49,1.489,3.55,2.34,5.65,2.34c2.109,0,4.17-0.851,5.66-2.34c1.489-1.49,2.34-3.561,2.34-5.66c0-2.101-0.851-4.17-2.34-5.66
		C118.5,133.442,116.439,132.583,114.33,132.583z"/>
	<path d="M141.68,134.923c-1.49,1.49-2.35,3.55-2.35,5.66c0,2.109,0.859,4.17,2.35,5.66c1.49,1.489,3.55,2.34,5.65,2.34
		c0.337,0,0.671-0.029,1.003-0.072c1.748-0.223,3.405-1.016,4.657-2.268c1.489-1.49,2.34-3.551,2.34-5.66
		c0-2.11-0.851-4.17-2.34-5.66c-1.252-1.244-2.909-2.042-4.657-2.268c-0.332-0.043-0.666-0.072-1.003-0.072
		C145.22,132.583,143.16,133.442,141.68,134.923z"/>
	<path d="M180.33,132.583c-2.101,0-4.17,0.859-5.65,2.34c-1.49,1.49-2.35,3.55-2.35,5.66c0,2.109,0.859,4.17,2.35,5.66
		c1.49,1.489,3.55,2.34,5.65,2.34c2.109,0,4.17-0.851,5.66-2.34c1.489-1.49,2.34-3.551,2.34-5.66c0-2.11-0.851-4.17-2.34-5.66
		C184.5,133.442,182.439,132.583,180.33,132.583z"/>
	<path d="M114.33,165.583c-2.101,0-4.17,0.859-5.65,2.34c-1.49,1.49-2.35,3.55-2.35,5.66c0,2.109,0.859,4.17,2.35,5.66
		c1.48,1.479,3.55,2.34,5.65,2.34c2.109,0,4.17-0.86,5.66-2.34c1.489-1.49,2.34-3.551,2.34-5.66c0-2.11-0.851-4.17-2.34-5.66
		C118.5,166.442,116.439,165.583,114.33,165.583z"/>
	<path d="M141.67,167.923c-1.48,1.49-2.34,3.56-2.34,5.66c0,2.109,0.859,4.17,2.34,5.66c1.49,1.479,3.56,2.34,5.66,2.34
		c0.337,0,0.671-0.029,1.003-0.072c1.748-0.226,3.405-1.024,4.657-2.268c1.489-1.49,2.34-3.551,2.34-5.66
		c0-2.101-0.851-4.17-2.34-5.66c-1.252-1.244-2.909-2.042-4.657-2.268c-0.332-0.043-0.666-0.072-1.003-0.072
		C145.229,165.583,143.17,166.442,141.67,167.923z"/>
	<path d="M180.33,165.583c-2.101,0-4.16,0.859-5.65,2.34c-1.49,1.49-2.35,3.55-2.35,5.66c0,2.109,0.859,4.17,2.35,5.66
		c1.49,1.479,3.55,2.34,5.65,2.34c2.109,0,4.17-0.86,5.66-2.34c1.489-1.49,2.34-3.551,2.34-5.66c0-2.11-0.851-4.17-2.34-5.66
		C184.5,166.442,182.439,165.583,180.33,165.583z"/>
	<path d="M114.33,198.583c-2.101,0-4.16,0.85-5.65,2.34c-1.49,1.49-2.35,3.55-2.35,5.66c0,2.109,0.859,4.17,2.35,5.66
		c1.48,1.489,3.55,2.34,5.65,2.34c2.109,0,4.17-0.851,5.66-2.34c1.489-1.49,2.34-3.551,2.34-5.66c0-2.11-0.851-4.17-2.34-5.66
		C118.5,199.432,116.439,198.583,114.33,198.583z"/>
	<path d="M141.68,200.923c-1.49,1.49-2.35,3.55-2.35,5.66c0,2.109,0.859,4.17,2.35,5.66c1.48,1.489,3.55,2.34,5.65,2.34
		c0.337,0,0.671-0.029,1.003-0.072c1.748-0.223,3.405-1.016,4.657-2.268c1.489-1.49,2.34-3.561,2.34-5.66
		c0-2.101-0.851-4.17-2.34-5.66c-1.252-1.252-2.909-2.045-4.657-2.268c-0.332-0.043-0.666-0.072-1.003-0.072
		C145.229,198.583,143.17,199.432,141.68,200.923z"/>
	<path d="M180.33,198.583c-2.101,0-4.17,0.85-5.65,2.34c-1.49,1.49-2.35,3.55-2.35,5.66c0,2.109,0.859,4.17,2.35,5.66
		c1.48,1.489,3.55,2.34,5.65,2.34c2.109,0,4.17-0.851,5.66-2.34c1.489-1.49,2.34-3.551,2.34-5.66c0-2.101-0.851-4.17-2.34-5.66
		C184.5,199.432,182.439,198.583,180.33,198.583z"/>
</g>
<g>
</g>
<g>
</g>
<g>
</g>
<g>
</g>
<g>
</g>
<g>
</g>
<g>
</g>
<g>
</g>
<g>
</g>
<g>
</g>
<g>
</g>
<g>
</g>
<g>
</g>
<g>
</g>
<g>
</g>
</svg>
