<?xml version="1.0" encoding="iso-8859-1"?>
<!-- Generator: Adobe Illustrator 16.0.0, SVG Export Plug-In . SVG Version: 6.00 Build 0)  -->
<!DOCTYPE svg PUBLIC "-//W3C//DTD SVG 1.1//EN" "http://www.w3.org/Graphics/SVG/1.1/DTD/svg11.dtd">
<svg version="1.1" id="Layer_1" xmlns="http://www.w3.org/2000/svg" xmlns:xlink="http://www.w3.org/1999/xlink" x="0px" y="0px"
	 width="31.202px" height="31.759px" viewBox="0 0 31.202 31.759" style="enable-background:new 0 0 31.202 31.759;"
	 xml:space="preserve">
<g>
	<path d="M16.379,10.067h9.986l4.836-3.979l-4.836-3.979h-9.986V0h-2.887v2.108H1.817v7.959h11.675v19.227h-2.91v2.025h8.627v-2.025
		h-2.83V10.067z M2.72,9.164V3.013h23.322l3.738,3.075l-3.738,3.076H2.72z"/>
	<path d="M7.674,5.975C7.588,5.905,7.49,5.847,7.38,5.801C7.271,5.755,7.158,5.716,7.043,5.683C6.927,5.65,6.815,5.623,6.705,5.599
		c-0.11-0.023-0.208-0.05-0.295-0.08S6.252,5.455,6.201,5.417C6.149,5.378,6.123,5.328,6.123,5.266c0-0.053,0.013-0.097,0.038-0.131
		C6.186,5.1,6.218,5.072,6.256,5.053c0.039-0.021,0.082-0.036,0.129-0.046c0.047-0.008,0.093-0.012,0.138-0.012
		c0.062,0,0.124,0.006,0.187,0.02c0.062,0.013,0.117,0.034,0.167,0.064c0.048,0.03,0.088,0.068,0.118,0.118
		c0.03,0.049,0.042,0.108,0.04,0.18H7.86c0-0.178-0.037-0.332-0.111-0.46C7.675,4.788,7.579,4.682,7.46,4.599
		C7.342,4.517,7.207,4.455,7.054,4.415C6.901,4.375,6.747,4.354,6.59,4.354c-0.148,0-0.3,0.019-0.454,0.054
		C5.982,4.443,5.843,4.501,5.719,4.576C5.594,4.654,5.493,4.753,5.414,4.877C5.335,5,5.296,5.146,5.296,5.318
		c0,0.146,0.027,0.27,0.083,0.373c0.055,0.101,0.125,0.187,0.213,0.257C5.679,6.018,5.778,6.074,5.89,6.119
		C6,6.163,6.112,6.202,6.225,6.235c0.116,0.032,0.227,0.06,0.335,0.086c0.108,0.024,0.205,0.054,0.291,0.086
		c0.086,0.032,0.155,0.071,0.207,0.116C7.11,6.567,7.136,6.625,7.136,6.697c0,0.059-0.015,0.109-0.044,0.15s-0.068,0.075-0.116,0.1
		C6.929,6.973,6.875,6.991,6.814,7.003C6.753,7.016,6.692,7.021,6.63,7.021c-0.178,0-0.32-0.036-0.427-0.107
		C6.097,6.843,6.039,6.715,6.03,6.527H5.203c0,0.205,0.037,0.378,0.113,0.52c0.076,0.144,0.177,0.26,0.305,0.352
		c0.127,0.092,0.273,0.159,0.438,0.2c0.165,0.042,0.338,0.063,0.522,0.063c0.175,0,0.345-0.018,0.511-0.054
		c0.166-0.035,0.313-0.094,0.442-0.176c0.129-0.08,0.233-0.19,0.311-0.326C7.923,6.969,7.963,6.8,7.963,6.6
		c0-0.144-0.027-0.266-0.081-0.367C7.83,6.129,7.76,6.044,7.674,5.975z"/>
	<path d="M9.247,5.359c0.06-0.089,0.136-0.16,0.229-0.214c0.093-0.053,0.207-0.079,0.34-0.079c0.175,0,0.319,0.041,0.434,0.123
		c0.114,0.084,0.183,0.205,0.207,0.365h0.827c-0.006-0.189-0.053-0.359-0.14-0.51c-0.087-0.148-0.199-0.274-0.335-0.377
		s-0.29-0.18-0.46-0.233c-0.17-0.054-0.341-0.08-0.512-0.08c-0.24,0-0.458,0.043-0.654,0.129c-0.195,0.085-0.362,0.203-0.5,0.354
		C8.542,4.986,8.437,5.161,8.362,5.361C8.289,5.561,8.251,5.777,8.251,6.008c0,0.231,0.037,0.446,0.111,0.647
		C8.437,6.854,8.542,7.029,8.68,7.18c0.138,0.149,0.305,0.267,0.5,0.352c0.195,0.087,0.414,0.13,0.654,0.13
		c0.201,0,0.387-0.028,0.56-0.088c0.171-0.057,0.321-0.142,0.448-0.252c0.128-0.112,0.23-0.248,0.307-0.409s0.121-0.345,0.133-0.549
		h-0.827c-0.015,0.184-0.076,0.328-0.184,0.431c-0.108,0.104-0.26,0.156-0.456,0.156c-0.133,0-0.247-0.027-0.34-0.08
		S9.306,6.745,9.247,6.656S9.145,6.467,9.118,6.355c-0.027-0.114-0.04-0.229-0.04-0.348c0-0.119,0.013-0.234,0.04-0.347
		C9.145,5.549,9.187,5.448,9.247,5.359z"/>
	<polygon points="13.629,5.577 12.54,5.577 12.54,4.422 11.714,4.422 11.714,7.594 12.54,7.594 12.54,6.287 13.629,6.287 
		13.629,7.594 14.455,7.594 14.455,4.422 13.629,4.422 	"/>
	<path d="M17.615,4.837c-0.133-0.15-0.296-0.269-0.491-0.354c-0.194-0.086-0.416-0.129-0.665-0.129c-0.249,0-0.47,0.043-0.664,0.129
		c-0.194,0.085-0.358,0.203-0.491,0.354c-0.133,0.149-0.235,0.324-0.305,0.524c-0.069,0.199-0.104,0.416-0.104,0.646
		c0,0.231,0.035,0.446,0.104,0.647c0.07,0.199,0.172,0.374,0.305,0.524c0.133,0.149,0.297,0.267,0.491,0.352
		c0.194,0.087,0.416,0.13,0.664,0.13c0.249,0,0.47-0.043,0.665-0.13c0.194-0.085,0.357-0.202,0.491-0.352
		c0.133-0.15,0.234-0.325,0.305-0.524c0.069-0.201,0.104-0.416,0.104-0.647c0-0.23-0.035-0.447-0.104-0.646
		C17.849,5.161,17.748,4.986,17.615,4.837z M17.158,6.355c-0.027,0.111-0.07,0.212-0.129,0.301S16.893,6.817,16.8,6.87
		c-0.094,0.053-0.207,0.08-0.34,0.08c-0.133,0-0.247-0.027-0.34-0.08s-0.17-0.125-0.229-0.214s-0.102-0.189-0.129-0.301
		c-0.026-0.114-0.04-0.229-0.04-0.348c0-0.119,0.014-0.234,0.04-0.347c0.027-0.112,0.07-0.213,0.129-0.302s0.136-0.16,0.229-0.214
		c0.093-0.053,0.207-0.079,0.34-0.079c0.133,0,0.247,0.026,0.34,0.079c0.093,0.054,0.169,0.125,0.229,0.214s0.103,0.189,0.129,0.302
		c0.026,0.112,0.04,0.228,0.04,0.347C17.197,6.126,17.184,6.241,17.158,6.355z"/>
	<path d="M21.072,4.837c-0.133-0.15-0.297-0.269-0.491-0.354c-0.194-0.086-0.416-0.129-0.664-0.129c-0.249,0-0.47,0.043-0.665,0.129
		c-0.194,0.085-0.357,0.203-0.491,0.354c-0.134,0.149-0.235,0.324-0.305,0.524c-0.069,0.199-0.104,0.416-0.104,0.646
		c0,0.231,0.035,0.446,0.104,0.647c0.07,0.199,0.171,0.374,0.305,0.524c0.133,0.149,0.297,0.267,0.491,0.352
		c0.195,0.087,0.416,0.13,0.665,0.13c0.249,0,0.47-0.043,0.664-0.13c0.194-0.085,0.358-0.202,0.491-0.352
		c0.133-0.15,0.234-0.325,0.305-0.524c0.069-0.201,0.104-0.416,0.104-0.647c0-0.23-0.035-0.447-0.104-0.646
		C21.306,5.161,21.205,4.986,21.072,4.837z M20.614,6.355c-0.026,0.111-0.069,0.212-0.129,0.301
		c-0.059,0.089-0.136,0.161-0.229,0.214c-0.094,0.053-0.207,0.08-0.34,0.08s-0.247-0.027-0.34-0.08s-0.169-0.125-0.229-0.214
		c-0.059-0.089-0.102-0.189-0.129-0.301c-0.026-0.114-0.04-0.229-0.04-0.348c0-0.119,0.013-0.234,0.04-0.347
		c0.027-0.112,0.07-0.213,0.129-0.302c0.06-0.089,0.136-0.16,0.229-0.214c0.093-0.053,0.207-0.079,0.34-0.079
		s0.247,0.026,0.34,0.079c0.093,0.054,0.169,0.125,0.229,0.214c0.06,0.089,0.103,0.189,0.129,0.302s0.04,0.228,0.04,0.347
		C20.654,6.126,20.641,6.241,20.614,6.355z"/>
	<polygon points="22.757,4.422 21.93,4.422 21.93,7.594 24.236,7.594 24.236,6.883 22.757,6.883 	"/>
	<path d="M1.474,19.047c-0.185-1.673,0.617-2.686,0.925-3.007c0.285,1.732,1.78,3.063,3.593,3.063c1.716,0,3.151-1.196,3.541-2.795
		c0.295,0.521,0.794,1.591,0.672,2.739c3.046-0.025,1.545-3.505-0.588-3.885c-0.016-0.179-0.032-0.357-0.07-0.528
		c-0.125-1.099-1.11-3.335-3.933-3.269c-2.433,0.058-2.965,1.889-3.091,3.004c-0.086,0.275-0.142,0.563-0.159,0.861
		C-0.806,15.779-0.458,18.994,1.474,19.047z M4.281,14.418c0,0,0.312,0.107,0.312,1.124c0.538,0.187,1.473-1.581,1.473-1.581v1.391
		c0.596,0.162,2.467-0.05,2.467-0.05l0.069,0.057c0.002,0.031,0.009,0.062,0.009,0.091c0,1.442-1.175,2.621-2.62,2.621
		c-1.425,0-2.582-1.146-2.613-2.563C3.899,15.317,4.281,14.418,4.281,14.418z"/>
	<polygon points="10.203,24.275 11.663,23.914 8.172,19.196 6.751,19.196 5.215,19.196 3.927,19.196 0.341,23.518 0.979,24.843 
		3.791,21.621 3.953,22.898 1.34,27.392 4.354,27.392 4.354,31.301 3.958,31.301 3.958,31.759 5.762,31.759 5.762,31.301 
		5.762,31.301 5.762,27.392 6.438,27.392 6.438,31.301 6.438,31.759 8.239,31.759 8.239,31.301 7.844,31.301 7.844,27.392 
		10.182,27.392 7.877,22.898 8.002,21.326 	"/>
	<path d="M23.776,11.363c-0.772,0-1.777,0.63-2.323,1.094c-0.68,0.574-0.144,1.081-0.144,2.041c0,1.736,1.402,3.137,3.136,3.137
		c1.732,0,3.136-1.4,3.136-3.137c0-1.081,0.379-2.072-0.455-2.637C26.626,11.527,24.427,11.363,23.776,11.363z M24.517,16.906
		c-1.268,0-2.294-1.045-2.294-2.335c0-0.132,0.018-0.256,0.038-0.381c0.576-0.106,0.968,0.087,0.968,0.087l0.962-0.472
		c0,0-0.489,0.71-0.048,0.472c0.978-0.33,2.074-0.193,2.632-0.084c0.02,0.124,0.039,0.246,0.039,0.378
		C26.813,15.861,25.786,16.906,24.517,16.906z"/>
	<polygon points="22.507,18.149 18.96,23.585 20.043,24.728 22.29,20.754 22.182,26.344 22.806,26.344 22.806,30.254 22.41,30.254 
		22.41,30.713 24.214,30.713 24.214,30.254 24.214,26.344 24.89,26.344 24.89,30.254 24.89,30.713 26.691,30.713 26.691,30.254 
		26.296,30.254 26.296,26.344 27.053,26.344 27.053,21.297 29.028,24.049 29.79,22.826 26.653,18.149 	"/>
</g>
<g>
</g>
<g>
</g>
<g>
</g>
<g>
</g>
<g>
</g>
<g>
</g>
<g>
</g>
<g>
</g>
<g>
</g>
<g>
</g>
<g>
</g>
<g>
</g>
<g>
</g>
<g>
</g>
<g>
</g>
</svg>
