<?xml version="1.0" encoding="utf-8"?>
<!-- Generator: Adobe Illustrator 17.0.0, SVG Export Plug-In . SVG Version: 6.00 Build 0)  -->
<!DOCTYPE svg PUBLIC "-//W3C//DTD SVG 1.1//EN" "http://www.w3.org/Graphics/SVG/1.1/DTD/svg11.dtd">
<svg version="1.1" id="Capa_1" xmlns="http://www.w3.org/2000/svg" xmlns:xlink="http://www.w3.org/1999/xlink" x="0px" y="0px"
	 width="18.645px" height="15.574px" viewBox="0 0 18.645 15.574" enable-background="new 0 0 18.645 15.574" xml:space="preserve">
<path d="M17.469,6.841H15.38l-4.562-4.563c0.007-0.065,0.02-0.13,0.02-0.196c0-0.853-0.693-1.545-1.547-1.545
	c-0.853,0-1.545,0.692-1.545,1.545c0,0.088,0.012,0.17,0.024,0.253L3.265,6.841H1.176c-0.294,0-0.533,0.238-0.533,0.533v0.735
	c0,0.294,0.239,0.533,0.533,0.533h0.409l1.131,5.94c0,0.252,0.204,0.455,0.455,0.455h12.301c0.252,0,0.456-0.204,0.456-0.455
	l1.131-5.94h0.408c0.295,0,0.534-0.238,0.534-0.533V7.375C18.004,7.078,17.765,6.841,17.469,6.841z M8.623,3.469
	C8.827,3.567,9.05,3.626,9.29,3.626c0.258,0,0.496-0.069,0.709-0.18l3.394,3.395H5.252C5.252,6.841,8.623,3.469,8.623,3.469z
	 M5.129,14.092H4.846c-0.306,0-0.596-0.178-0.645-0.401l-0.821-3.67C3.312,9.723,3.552,9.476,3.916,9.476h0.335
	c0.364,0,0.7,0.247,0.751,0.545l0.614,3.67C5.655,13.913,5.436,14.092,5.129,14.092z M8.069,14.092H7.786
	c-0.306,0-0.574-0.178-0.598-0.401l-0.387-3.67C6.77,9.723,7.039,9.476,7.402,9.476h0.335c0.365,0,0.673,0.247,0.686,0.545
	l0.18,3.67C8.617,13.913,8.376,14.092,8.069,14.092z M11.594,13.691c-0.016,0.223-0.277,0.401-0.585,0.401h-0.283
	c-0.306,0-0.554-0.178-0.55-0.401l0.047-3.67c0.004-0.298,0.303-0.545,0.668-0.545h0.334c0.366,0,0.643,0.247,0.622,0.545
	L11.594,13.691z M14.582,13.691c-0.043,0.223-0.326,0.401-0.633,0.401h-0.283c-0.306,0-0.532-0.178-0.503-0.401l0.483-3.67
	c0.039-0.298,0.368-0.545,0.732-0.545h0.334c0.366,0,0.614,0.247,0.559,0.545C15.271,10.021,14.582,13.691,14.582,13.691z"/>
</svg>
