<?xml version="1.0" encoding="iso-8859-1"?>
<!-- Generator: Adobe Illustrator 18.0.0, SVG Export Plug-In . SVG Version: 6.00 Build 0)  -->
<!DOCTYPE svg PUBLIC "-//W3C//DTD SVG 1.1//EN" "http://www.w3.org/Graphics/SVG/1.1/DTD/svg11.dtd">
<svg version="1.1" id="Capa_1" xmlns="http://www.w3.org/2000/svg" xmlns:xlink="http://www.w3.org/1999/xlink" x="0px" y="0px"
	 viewBox="0 0 243.5 243.5" style="enable-background:new 0 0 243.5 243.5;" xml:space="preserve">
<g>
	<path d="M113.403,157.775c0.399,3.858,3.655,6.729,7.451,6.729c0.258,0,0.518-0.013,0.78-0.04c4.12-0.426,7.115-4.111,6.689-8.232
		l-3.458-33.468c-0.426-4.121-4.11-7.112-8.231-6.689c-4.12,0.426-7.115,4.111-6.69,8.231L113.403,157.775z"/>
	<path d="M160.338,164.464c0.262,0.027,0.522,0.04,0.78,0.04c3.795,0,7.052-2.872,7.451-6.729l3.458-33.468
		c0.426-4.121-2.569-7.806-6.689-8.231c-4.121-0.422-7.806,2.57-8.232,6.689l-3.458,33.468
		C153.223,160.354,156.218,164.039,160.338,164.464z"/>
	<path d="M102.266,197.064c-12.801,0-23.215,10.414-23.215,23.215c0,12.804,10.414,23.221,23.215,23.221
		c12.801,0,23.216-10.417,23.216-23.221C125.481,207.479,115.067,197.064,102.266,197.064z M102.266,228.5
		c-4.53,0-8.215-3.688-8.215-8.221c0-4.53,3.685-8.215,8.215-8.215c4.53,0,8.216,3.685,8.216,8.215
		C110.481,224.812,106.796,228.5,102.266,228.5z"/>
	<path d="M179.707,197.064c-12.801,0-23.216,10.414-23.216,23.215c0,12.804,10.415,23.221,23.216,23.221
		c12.802,0,23.218-10.417,23.218-23.221C202.925,207.479,192.509,197.064,179.707,197.064z M179.707,228.5
		c-4.53,0-8.216-3.688-8.216-8.221c0-4.53,3.686-8.215,8.216-8.215c4.531,0,8.218,3.685,8.218,8.215
		C187.925,224.812,184.238,228.5,179.707,228.5z"/>
	<path d="M224.569,91.057c-1.42-1.837-3.611-2.913-5.933-2.913H69.141l-6.277-24.141c-0.86-3.305-3.844-5.612-7.259-5.612h-30.74
		c-4.142,0-7.5,3.358-7.5,7.5s3.358,7.5,7.5,7.5h24.941l6.221,23.922c0.034,0.15,0.073,0.299,0.116,0.446l23.15,89.022
		c0.86,3.305,3.844,5.612,7.259,5.612h108.874c3.415,0,6.399-2.307,7.259-5.612l23.211-89.25
		C226.478,95.285,225.989,92.894,224.569,91.057z M189.626,177.395H92.35l-19.309-74.25h135.894L189.626,177.395z"/>
	<path d="M135.674,74.826c1.464,1.464,3.384,2.197,5.303,2.197c1.92,0,3.839-0.732,5.303-2.197l24.28-24.28
		c2.929-2.929,2.929-7.678,0-10.606c-2.929-2.928-7.678-2.928-10.606,0l-11.468,11.468l0.002-43.907
		c0-4.142-3.357-7.501-7.499-7.501h-0.001c-4.142,0-7.5,3.358-7.5,7.499l-0.002,43.925l-11.468-11.468
		c-2.929-2.929-7.678-2.929-10.606,0c-2.929,2.929-2.929,7.678,0,10.606L135.674,74.826z"/>
</g>
<g>
</g>
<g>
</g>
<g>
</g>
<g>
</g>
<g>
</g>
<g>
</g>
<g>
</g>
<g>
</g>
<g>
</g>
<g>
</g>
<g>
</g>
<g>
</g>
<g>
</g>
<g>
</g>
<g>
</g>
</svg>
